<svg width="1048" height="64" viewBox="0 0 1048 64" fill="none" xmlns="http://www.w3.org/2000/svg">
<g clip-path="url(#clip0_105_9)">
<path d="M32 0C14.328 0 0 14.328 0 32C0 49.672 14.328 64 32 64C49.672 64 64 49.672 64 32C64 14.328 49.672 0 32 0ZM32 2.08C48.5227 2.08 61.9173 15.4747 61.9173 32C61.9173 48.5227 48.5253 61.9173 32 61.9173C15.4747 61.9173 2.08267 48.5227 2.08267 32C2.08267 15.4773 15.4773 2.08 32 2.08ZM30.192 3.76C29.3138 3.79911 28.432 3.86844 27.5467 3.968L27.2613 11.8187C27.8892 11.7125 28.5208 11.6289 29.1547 11.568L29.3413 6.26667L29.3067 5.90133L29.4213 6.248L31.192 10.2187H32.808L34.5787 6.25067L34.6853 5.90133L34.6587 6.26667L34.8453 11.568C35.464 11.6267 36.1067 11.712 36.7387 11.8187L36.448 3.968C35.5688 3.86943 34.6865 3.80006 33.8027 3.76L32.0613 8.09333L32 8.41333L31.9387 8.09333L30.192 3.76ZM48.048 8.624L43.9333 15.0987C44.4533 15.4987 45.1387 16.088 45.5787 16.4907L49.4533 14.48L49.6987 14.296L49.5147 14.5467L47.5093 18.4213C47.944 18.888 48.5707 19.6427 48.9227 20.1013L55.4027 15.984C55.0054 15.4698 54.5964 14.9648 54.176 14.4693L50.072 17.1733L49.792 17.4187L50 17.112L51.8133 13.496L50.5333 12.216L46.9173 14.0293L46.6107 14.2373L46.8533 13.9547L49.568 9.85067C49.088 9.44533 48.632 9.07467 48.048 8.624ZM14.6667 10.0933C13.7067 10.192 12.9653 10.848 10.952 13.0933C10.2539 13.8846 9.58068 14.6974 8.93333 15.5307L14.464 20.776C16.296 18.7493 17.04 17.9973 18.4853 16.4747C19.5067 15.3947 20.0853 14.1547 19.0613 12.9627C18.5067 12.3173 17.5733 12.176 16.7947 12.496L16.72 12.5227L16.7467 12.4533C16.8428 12.0995 16.8327 11.7252 16.7174 11.3771C16.6022 11.029 16.387 10.7225 16.0987 10.496C15.8986 10.3375 15.6688 10.2204 15.423 10.1518C15.1771 10.0831 14.92 10.0615 14.6667 10.0933ZM14.6827 11.7333C15.0453 11.6347 15.4213 11.8933 15.504 12.2667C15.5893 12.64 15.3547 12.992 15.0933 13.2853C14.5067 13.952 12.344 16.2133 12.344 16.2133L11.272 15.192C12.384 13.832 13.568 12.5947 14.104 12.104C14.2648 11.9364 14.4631 11.8093 14.6827 11.7333ZM32 13.0213C27.3024 13.0193 22.7711 14.7602 19.2833 17.9071C15.7956 21.0539 13.5994 25.3829 13.12 30.056V30.0613C12.8187 33.0261 13.2193 36.0202 14.2894 38.8015C15.3595 41.5828 17.0691 44.0733 19.2799 46.0715C21.4908 48.0697 24.1408 49.5197 27.0158 50.304C29.8908 51.0884 32.91 51.1852 35.8293 50.5867C40.1089 49.708 43.9538 47.3783 46.7137 43.9916C49.4736 40.6048 50.9792 36.3689 50.976 32C50.9725 26.9686 48.972 22.1443 45.414 18.5868C41.856 15.0293 37.0314 13.0295 32 13.0267V13.0213ZM17.2347 13.6667C17.3627 13.6649 17.4871 13.7031 17.608 13.7813C17.8427 13.9387 17.9493 14.208 17.8907 14.4747C17.8213 14.792 17.5573 15.0907 17.344 15.3227L14.5573 18.3093L13.4373 17.2427C13.4373 17.2427 15.536 15.024 16.224 14.312C16.496 14.0293 16.672 13.8587 16.8587 13.7653C16.9732 13.7025 17.104 13.6686 17.2347 13.6667ZM32 15.5147C34.1656 15.5122 36.3104 15.9369 38.3116 16.7645C40.3128 17.5921 42.1311 18.8063 43.6624 20.3376C45.1937 21.8689 46.4079 23.6872 47.2355 25.6884C48.0631 27.6896 48.4878 29.8344 48.4853 32H32V48.4853C29.8344 48.4878 27.6896 48.0631 25.6884 47.2355C23.6872 46.4079 21.8689 45.1937 20.3376 43.6624C18.8063 42.1311 17.5921 40.3128 16.7645 38.3116C15.9369 36.3104 15.5122 34.1656 15.5147 32H32V15.5147Z" fill="white"/>
</g>
<path d="M222.667 25.7093H205.867C204.81 24.0531 203.353 22.6899 201.631 21.7455C199.908 20.8011 197.975 20.306 196.011 20.306C194.046 20.306 192.113 20.8011 190.391 21.7455C188.668 22.6899 187.211 24.0531 186.155 25.7093H169.333L171.008 27.384H185.272C185.001 28.0138 184.786 28.666 184.629 29.3333H172.957L174.611 30.9867H184.36C184.326 31.3234 184.309 31.6616 184.307 32C184.304 32.3387 184.325 32.624 184.355 32.936H176.56L178.213 34.5893H184.613C184.762 35.2558 184.968 35.908 185.229 36.5387H180.163L181.837 38.2133H186.104C187.153 39.8901 188.611 41.2727 190.341 42.2312C192.072 43.1896 194.017 43.6924 195.995 43.6924C197.973 43.6924 199.918 43.1896 201.648 42.2312C203.378 41.2727 204.836 39.8901 205.885 38.2133H210.152L211.827 36.5387H206.76C207.022 35.908 207.228 35.2558 207.376 34.5893H213.776L215.429 32.936H207.645C207.674 32.6231 207.69 32.3111 207.693 32C207.692 31.6622 207.674 31.3244 207.64 30.9867H217.389L219.043 29.3333H207.371C207.214 28.666 206.999 28.0138 206.728 27.384H220.992L222.667 25.7093ZM196 42.1093C194.672 42.1097 193.358 41.8484 192.131 41.3405C190.904 40.8326 189.79 40.088 188.851 39.1492C187.912 38.2104 187.168 37.0958 186.66 35.8691C186.152 34.6424 185.89 33.3277 185.891 32C185.891 30.6725 186.152 29.3581 186.66 28.1317C187.168 26.9054 187.913 25.7911 188.852 24.8526C189.791 23.914 190.905 23.1696 192.132 22.6619C193.358 22.1541 194.673 21.893 196 21.8933C197.341 21.8715 198.674 22.1169 199.919 22.6151C201.164 23.1133 202.298 23.8544 203.254 24.7951C204.211 25.7359 204.97 26.8576 205.488 28.0948C206.007 29.332 206.274 30.6599 206.274 32.0013C206.274 33.3427 206.007 34.6707 205.488 35.9079C204.97 37.1451 204.211 38.2668 203.254 39.2075C202.298 40.1483 201.164 40.8894 199.919 41.3876C198.674 41.8858 197.341 42.1311 196 42.1093ZM200.56 32.88L198.176 29.3813H197.032V34.6187H198.123V31.2027L200.472 34.6187H201.653V29.3813H200.56V32.88ZM202.864 29.3813H204.04V34.6213H202.864V29.3813ZM190.776 32.9547L189.72 29.3813H187.96V34.6187H189.051V30.496L190.205 34.6187H191.336L192.493 30.496V34.6187H193.587V29.3813H191.821L190.776 32.9547ZM194.725 29.3813H195.901V34.6213H194.725V29.3813Z" fill="white"/>
<g clip-path="url(#clip1_105_9)">
<path d="M380.928 20.928C378.282 20.928 375.856 21.856 373.952 23.4027C371.982 21.7977 369.517 20.9234 366.976 20.928C364.33 20.928 361.904 21.856 360 23.4027C358.03 21.7977 355.565 20.9234 353.024 20.928C350.378 20.928 347.952 21.856 346.048 23.4027C344.423 22.0843 342.458 21.2533 340.381 21.0058C338.303 20.7582 336.198 21.1044 334.31 22.0041C332.421 22.9038 330.826 24.3203 329.709 26.0894C328.592 27.8585 327.999 29.9078 327.999 32C327.999 34.0922 328.592 36.1415 329.709 37.9106C330.826 39.6797 332.421 41.0962 334.31 41.9959C336.198 42.8956 338.303 43.2418 340.381 42.9942C342.458 42.7467 344.423 41.9156 346.048 40.5973C347.952 42.144 350.378 43.072 353.024 43.072C355.669 43.072 358.096 42.144 360 40.5973C361.904 42.144 364.33 43.072 366.976 43.072C369.621 43.072 372.048 42.144 373.952 40.5973C375.328 41.7141 376.952 42.4842 378.688 42.8429C380.423 43.2016 382.22 43.1384 383.926 42.6586C385.632 42.1788 387.198 41.2965 388.492 40.0858C389.787 38.875 390.771 37.3713 391.364 35.701C391.956 34.0306 392.139 32.2425 391.897 30.4868C391.654 28.7311 390.994 27.0593 389.972 25.6117C388.949 24.1642 387.594 22.9833 386.02 22.1682C384.446 21.3532 382.7 20.9279 380.928 20.928ZM373.952 36.976C372.913 35.5249 372.355 33.7846 372.357 32C372.357 30.144 372.949 28.4267 373.952 27.024C374.954 28.4267 375.546 30.144 375.546 32C375.546 33.856 374.954 35.5733 373.952 36.976ZM360 36.976C358.961 35.5249 358.403 33.7846 358.405 32C358.405 30.144 358.997 28.4267 360 27.024C361.002 28.4267 361.594 30.144 361.594 32C361.594 33.856 361.002 35.5733 360 36.976ZM346.048 36.976C345.009 35.5249 344.451 33.7846 344.453 32C344.453 30.144 345.045 28.4267 346.048 27.024C347.05 28.4267 347.642 30.144 347.642 32C347.642 33.856 347.05 35.5733 346.048 36.976ZM330.501 32C330.502 30.4008 330.95 28.8336 331.795 27.4757C332.639 26.1179 333.847 25.0234 335.282 24.3162C336.716 23.609 338.32 23.3173 339.911 23.4739C341.503 23.6306 343.019 24.2294 344.288 25.2027C342.771 27.1434 341.948 29.5367 341.952 32C341.952 34.5627 342.826 36.9227 344.288 38.7973C343.019 39.7706 341.503 40.3694 339.911 40.5261C338.32 40.6827 336.716 40.3909 335.282 39.6837C333.847 38.9765 332.639 37.8821 331.795 36.5243C330.95 35.1664 330.502 33.5992 330.501 32ZM347.808 38.7973C349.325 36.8565 350.147 34.4633 350.144 32C350.144 29.4373 349.269 27.0773 347.808 25.2027C349.303 24.0511 351.137 23.4275 353.024 23.4293C354.986 23.4293 356.794 24.0907 358.24 25.2027C356.723 27.1434 355.9 29.5367 355.904 32C355.904 34.5627 356.778 36.9227 358.24 38.7973C356.745 39.9489 354.911 40.5725 353.024 40.5707C351.137 40.5725 349.303 39.9489 347.808 38.7973ZM361.76 38.7973C363.277 36.8565 364.099 34.4633 364.096 32C364.096 29.4373 363.221 27.0773 361.76 25.2C363.205 24.0907 365.013 23.4267 366.976 23.4267C368.938 23.4267 370.746 24.088 372.192 25.2C370.675 27.1408 369.852 29.5341 369.856 31.9973C369.856 34.56 370.73 36.92 372.192 38.7947C370.697 39.9462 368.863 40.5698 366.976 40.568C365.089 40.5706 363.255 39.9479 361.76 38.7973ZM380.928 40.5707C379.041 40.5725 377.207 39.9489 375.712 38.7973C377.227 36.8556 378.049 34.4629 378.048 32C378.048 29.4373 377.173 27.0773 375.712 25.2027C376.792 24.3728 378.055 23.8126 379.395 23.5683C380.736 23.324 382.115 23.4027 383.419 23.7979C384.722 24.1931 385.913 24.8935 386.892 25.8408C387.871 26.7882 388.61 27.9553 389.048 29.2454C389.486 30.5355 389.61 31.9114 389.41 33.2589C389.21 34.6065 388.691 35.887 387.897 36.9942C387.104 38.1013 386.057 39.0033 384.845 39.6253C383.633 40.2473 382.29 40.5714 380.928 40.5707Z" fill="white"/>
</g>
<path d="M519.152 30.6427H521.064L522.731 25.7094L523.704 30.6427H525.619L528.227 23.0214L526.227 23.024L524.835 27.168L524.037 23.024H521.344L521.277 23.2214L521.411 23.3494C521.552 23.4907 521.544 23.6534 521.424 24.0054L519.152 30.6427ZM529.149 24.0054L526.875 30.6454H530.232C531.672 30.6454 532.491 30.3253 533.16 29.6133C533.995 28.728 534.76 26.4267 534.733 25.16C534.709 23.8667 533.875 23.0267 532.12 23.0267H529.067L529.003 23.2214L529.136 23.3494C529.275 23.4907 529.272 23.6534 529.149 24.0054ZM530.973 24.832H531.808C532.376 24.832 532.688 25.0214 532.696 25.4614C532.701 25.744 532.624 26.1334 532.331 26.968C532.069 27.7147 531.861 28.1494 531.565 28.4667C531.331 28.7174 531.013 28.8267 530.291 28.8267H529.595L530.973 24.832ZM541.816 25.7574H536.747L536.088 27.5707H539.603L535.611 28.928L535.363 29.576L541.115 27.6827L541.816 25.7574ZM505.448 30.6454H510.648L511.277 28.8267H508.253L510.253 23.024H507.643L507.579 23.2214L507.709 23.3494C507.851 23.4907 507.845 23.6534 507.723 24.0054L505.448 30.6454ZM511.189 30.6427H513.403L514.36 28.9574H516.651L516.672 30.6427H518.68L518.248 23.024H515.243L515.176 23.2214L515.272 23.3174C515.432 23.472 515.365 23.696 514.781 24.624L511.189 30.6427ZM516.512 25.1307H516.581L516.619 27.4347H515.213L516.512 25.1307ZM513.36 32.2934H510.069L510.003 32.4907L510.136 32.624C510.277 32.76 510.269 32.9254 510.147 33.2774L507.848 39.9174H509.949L510.848 37.28H511.56L512.349 39.9147H514.461L513.469 37.2214C513.9 37.1765 514.304 36.9953 514.624 36.704C515.021 36.3414 515.296 35.8347 515.523 35.0854C515.853 34 515.653 33.3787 515.44 33.0587C515.147 32.6214 514.528 32.2934 513.36 32.2934ZM513.541 35.0613C513.408 35.3867 513.264 35.464 513.075 35.5414C512.861 35.5913 512.641 35.6146 512.421 35.6107H511.413L511.96 34.0347H513.173C513.536 34.0347 513.685 34.2214 513.691 34.44C513.672 34.6536 513.62 34.8631 513.539 35.0613M541.368 32.2934H538.08L538.016 32.4907L538.149 32.624C538.291 32.76 538.283 32.9254 538.163 33.2774L535.861 39.9174H537.965L538.861 37.2827H539.573L540.365 39.9147H542.472L541.485 37.2214C541.914 37.1754 542.316 36.9942 542.635 36.704C543.035 36.3414 543.309 35.8347 543.536 35.0854C543.867 34 543.669 33.3787 543.456 33.0587C543.163 32.6214 542.539 32.2934 541.368 32.2934ZM541.555 35.0613C541.421 35.3867 541.277 35.464 541.091 35.5414C540.877 35.5913 540.657 35.6146 540.437 35.6107H539.435L539.976 34.0347H541.189C541.552 34.0347 541.701 34.2214 541.704 34.44C541.686 34.6535 541.635 34.8629 541.555 35.0613ZM545.2 22.416C538.893 19.1574 531.04 17.9094 524 17.9094C516.96 17.9094 509.107 19.1574 502.8 22.416C499.253 24.248 494.76 27.5494 494.76 32C494.76 36.4507 499.256 39.752 502.8 41.584C509.107 44.8427 516.96 46.0907 524 46.0907C531.04 46.0907 538.893 44.8454 545.2 41.584C548.744 39.752 553.24 36.4507 553.24 32C553.24 27.5467 548.747 24.248 545.2 22.416ZM544.88 40.96C538.667 44.168 530.941 45.3867 524 45.3867C517.059 45.3867 509.333 44.168 503.12 40.96C499.837 39.256 495.467 36.1227 495.467 32C495.467 27.872 499.835 24.7414 503.12 23.0427C509.333 19.8347 517.061 18.616 524 18.616C530.939 18.616 538.667 19.832 544.88 23.0427C548.168 24.7414 552.533 27.8694 552.533 32.0027C552.533 36.128 548.165 39.2587 544.88 40.96ZM546.467 19.9654C540.456 16.8587 532.48 15.1494 524 15.1494C515.523 15.1494 507.547 16.8587 501.533 19.9654C497.973 21.8054 492 25.816 492 32C492 38.184 497.973 42.1947 501.533 44.0347C507.544 47.1414 515.523 48.8534 524 48.8534C532.477 48.8534 540.456 47.144 546.467 44.0374C550.027 42.1947 556 38.1867 556 32C556 25.8134 550.027 21.8054 546.467 19.9654ZM545.685 42.5253C539.912 45.504 532.213 47.1467 524 47.1467C515.787 47.1467 508.091 45.504 502.315 42.52C496.763 39.6534 493.701 35.9147 493.701 32C493.701 28.0827 496.763 24.3467 502.315 21.4774C508.091 18.496 515.789 16.8534 524 16.8534C532.213 16.8534 539.912 18.4987 545.685 21.48C551.24 24.3467 554.299 28.0854 554.299 32.0027C554.299 35.9174 551.24 39.656 545.685 42.5253ZM520.592 32.2054H520.349C518.912 32.2054 518.093 32.5894 517.419 33.304C516.581 34.192 515.795 36.584 515.811 37.8534C515.827 39.144 516.664 40.04 518.419 40.04H518.675C520.115 40.04 520.936 39.6534 521.608 38.9387C522.445 38.0507 523.216 35.6587 523.2 34.3894C523.184 33.0987 522.347 32.2027 520.589 32.2027M520.712 36.2427C520.451 36.992 520.245 37.4747 519.944 37.792C519.704 38.0427 519.392 38.2214 518.664 38.2214C518.099 38.2214 517.784 37.9893 517.784 37.552C517.779 37.2667 517.856 36.8374 518.16 36C518.421 35.2534 518.627 34.768 518.931 34.4507C519.165 34.2 519.483 34.0214 520.205 34.0214C520.773 34.0214 521.088 34.2534 521.085 34.688C521.093 34.976 521.016 35.408 520.712 36.2427ZM508.093 33.28L502.341 35.1707L501.64 37.0987H506.712L507.373 35.2827H503.856L507.848 33.9307L508.093 33.28ZM529.016 32.296L526.227 37.776H526.168L526.027 32.296H523.693L523.603 32.4934L523.803 32.616C523.997 32.752 524.051 32.8907 524.075 33.272L524.392 39.9174H526.992L531.187 32.296H529.016ZM535.405 36.8614L535.989 35.2694H533.307L533.723 34.0507H536.624L537.264 32.2907H531.787L531.709 32.5147L531.843 32.6453C531.984 32.7814 531.976 32.944 531.853 33.3014L529.573 39.9147H534.693L535.312 38.1467H532.325L532.763 36.8614H535.405Z" fill="white"/>
<g clip-path="url(#clip2_105_9)">
<path d="M688 0C705.661 0 720 14.3387 720 32C720 49.6613 705.661 64 688 64C670.339 64 656 49.6613 656 32C656 14.3387 670.339 0 688 0ZM664.653 46.7707C667.145 50.7087 670.592 53.9524 674.674 56.2002C678.756 58.448 683.34 59.6267 688 59.6267C697.816 59.6267 706.445 54.496 711.347 46.7707L688 37.8747L664.653 46.7707ZM693.088 29.0613L712.467 44.8347C714.549 40.8775 715.634 36.4717 715.627 32C715.627 17.128 703.848 4.984 689.12 4.39467L693.088 29.0613ZM686.88 4.39467C672.152 4.984 660.373 17.128 660.373 32C660.373 36.632 661.515 40.9973 663.533 44.8347L682.912 29.0613L686.88 4.39467Z" fill="white"/>
</g>
<g clip-path="url(#clip3_105_9)">
<path d="M852 0C834.328 0 820 14.328 820 32C820 49.672 834.328 64 852 64C869.672 64 884 49.672 884 32C884 14.328 869.672 0 852 0ZM852 61.2373C835.853 61.2373 822.763 48.1467 822.763 32C822.763 15.8533 835.853 2.76267 852 2.76267C868.147 2.76267 881.237 15.8533 881.237 32C881.237 48.1467 868.147 61.2373 852 61.2373ZM865.837 41.9493L865.12 43.8853H862.496C863.197 41.9947 872.037 20.9067 854.667 6.60267C851.02 6.21389 847.332 6.62151 843.859 7.79733C844.437 8.264 850.456 13.2027 853.291 19.304L852.459 19.528C850.896 17.824 845.216 11.5733 839.805 9.56C836.893 11.1465 834.316 13.2839 832.219 15.8533C834.76 17.152 841.403 21.1173 843.925 24.2C843.686 24.3191 843.448 24.4427 843.213 24.5707C838.584 21.0507 830.36 19.2267 829.941 19.136C828.211 22.0908 827.098 25.3656 826.669 28.7627C839.405 31.3227 842.835 37.216 843.421 43.8853H841.008L836.864 42.08C836.646 42.0039 836.419 41.9564 836.189 41.9387H828.472C829.694 44.8221 831.435 47.4569 833.608 49.712H836.899C837.181 49.712 837.432 49.6773 837.677 49.536L841.008 47.8347H865.12L865.837 49.7707C868.833 49.4257 871.614 48.0425 873.696 45.8613C871.614 43.6792 868.834 42.2951 865.837 41.9493ZM854.797 40.4053C854.279 40.057 853.875 39.5635 853.636 38.9867C853.397 38.41 853.333 37.7754 853.453 37.1627C853.577 36.5509 853.879 35.9894 854.321 35.5483C854.762 35.1072 855.324 34.8061 855.936 34.6827C856.549 34.5626 857.183 34.6258 857.76 34.8643C858.336 35.1029 858.83 35.5063 859.179 36.024C860.005 37.2613 859.864 38.9387 858.787 40.0133C858.269 40.5295 857.589 40.8506 856.862 40.9221C856.135 40.9935 855.405 40.8109 854.797 40.4053Z" fill="white"/>
</g>
<path d="M1021.13 37.8C1021.13 37.9245 1021.17 37.9885 1021.24 37.992C1021.29 37.9878 1021.35 37.9654 1021.39 37.928L1041.34 24.984C1041.68 24.748 1042.08 24.6265 1042.49 24.6374H1046.87C1047.55 24.6374 1048 25.0854 1048 25.7574V34.128C1048 35.1414 1047.78 35.728 1046.88 36.264L1041.56 39.464C1041.51 39.5004 1041.45 39.5224 1041.38 39.528C1041.32 39.528 1041.26 39.4774 1041.26 39.2934V29.5254C1041.26 29.4107 1041.22 29.336 1041.15 29.336C1041.09 29.3402 1041.04 29.3626 1040.99 29.4L1026.42 38.8694C1026.09 39.0944 1025.7 39.2127 1025.3 39.208H1015.63C1014.95 39.208 1014.51 38.76 1014.51 38.0827V26.0187C1014.51 25.9307 1014.47 25.848 1014.39 25.848C1014.33 25.8528 1014.28 25.8752 1014.24 25.912L1004.62 31.68C1004.52 31.744 1004.5 31.7894 1004.5 31.8347C1004.5 31.872 1004.52 31.912 1004.58 31.9814L1011.45 38.848C1011.54 38.9387 1011.61 39.008 1011.61 39.0854C1011.61 39.1494 1011.5 39.2 1011.38 39.2H1005.17C1004.69 39.2 1004.31 39.1307 1004.05 38.8667L999.88 34.7067C999.864 34.6881 999.844 34.6729 999.822 34.6619C999.8 34.651 999.776 34.6444 999.752 34.6427C999.707 34.6449 999.663 34.6587 999.624 34.6827L992.664 38.8694C992.331 39.0929 991.937 39.2067 991.536 39.1947H985.133C984.448 39.2 984 38.7467 984 38.0774V29.864C984 28.8507 984.224 28.264 985.125 27.7307L990.48 24.512C990.521 24.4853 990.569 24.4705 990.619 24.4694C990.704 24.4694 990.747 24.5494 990.747 24.736V35.7334C990.747 35.848 990.773 35.9014 990.856 35.9014C990.914 35.8928 990.968 35.8709 991.016 35.8374L1009.09 24.96C1009.44 24.7237 1009.85 24.6076 1010.27 24.6294H1020C1020.67 24.6294 1021.13 25.0774 1021.13 25.7494L1021.12 37.7974L1021.13 37.8Z" fill="white"/>
<defs>
<clipPath id="clip0_105_9">
<rect width="64" height="64" fill="white"/>
</clipPath>
<clipPath id="clip1_105_9">
<rect width="64" height="64" fill="white" transform="translate(328)"/>
</clipPath>
<clipPath id="clip2_105_9">
<rect width="64" height="64" fill="white" transform="translate(656)"/>
</clipPath>
<clipPath id="clip3_105_9">
<rect width="64" height="64" fill="white" transform="translate(820)"/>
</clipPath>
</defs>
</svg>
